# File created by Blade
# Date/Time:  Wed Jan 21 19:13:57 2015
# Frame Rate: 120.000 fps
#------------------------------------------------------
:FULLY-SPECIFIED
:DEGREES
797
root 7.609421 31.149084 12.969782 86.717299 60.940771 17.510725
RightUpLeg -100.035503 -9.124139 7.058278
RightLeg 29.391055 -0.000000 -0.000000
RightFoot -6.330146 1.493112 22.922819
RightToeBase 20.350738 -0.000000 -0.000000
LeftUpLeg -49.462686 6.544890 -0.856670
LeftLeg 15.981286 -0.000000 -0.000000
LeftFoot -2.331136 -9.871071 -12.262035
LeftToeBase -6.499419 -0.000000 0.000000
Spine -30.998370 -5.156452 11.343233
RightShoulder -13.666742 6.148743 -26.760096
RightArm -3.564794 -34.634599 86.632957
RightForeArm 16.487850 -0.000000 23.611542
RightHand 16.063499 -0.000000 -1.444718
RightHandThumb1 -24.326973 -0.000000 -32.862282
LeftShoulder -3.016478 9.424229 22.685905
LeftArm 28.423561 44.691122 -79.748896
LeftForeArm 10.980291 -0.000000 32.020879
LeftHand -15.777378 -0.000000 4.301761
LeftHandThumb1 -26.253704 0.000000 33.147579
Head 11.639269 10.349265 4.582355
798
root 7.616749 31.158649 12.918809 86.287667 60.877935 17.455260
RightUpLeg -99.590745 -9.222977 7.103263
RightLeg 29.113984 -0.000000 -0.000000
RightFoot -6.157952 1.528311 22.969403
RightToeBase 20.421961 -0.000000 -0.000000
LeftUpLeg -49.290318 6.429306 -1.102324
LeftLeg 15.941736 -0.000000 -0.000000
LeftFoot -2.897157 -9.706170 -12.188494
LeftToeBase -6.545051 -0.000000 0.000000
Spine -31.127270 -4.872359 11.215690
RightShoulder -13.654817 6.296634 -26.772452
RightArm -3.644051 -34.493182 86.900072
RightForeArm 16.466807 -0.000000 23.725032
RightHand 16.161472 -0.000000 -1.613609
RightHandThumb1 -24.326973 -0.000000 -32.862282
LeftShoulder -3.008974 9.314580 22.818837
LeftArm 28.198172 44.956989 -79.866048
LeftForeArm 10.700175 -0.000000 31.286378
LeftHand -15.754056 0.000000 3.764143
LeftHandThumb1 -26.253704 0.000000 33.147579
Head 11.528026 10.120205 4.844426
799
root 7.626475 31.166526 12.867025 85.850473 60.859942 17.431771
RightUpLeg -99.119360 -9.341022 7.147589
RightLeg 28.876753 -0.000000 -0.000000
RightFoot -6.003039 1.513103 22.858259
RightToeBase 20.289111 -0.000000 -0.000000
LeftUpLeg -49.096986 6.294680 -1.299207
LeftLeg 15.967242 -0.000000 -0.000000
LeftFoot -3.523993 -9.391228 -11.819262
LeftToeBase -6.662166 -0.000000 0.000000
Spine -31.235076 -4.663413 11.170029
RightShoulder -13.619071 6.549340 -26.813576
RightArm -3.891300 -34.249344 87.287882
RightForeArm 16.508094 -0.000000 23.824051
RightHand 16.074668 0.000000 -1.404750
RightHandThumb1 -24.326973 -0.000000 -32.862282
LeftShoulder -3.070388 9.232874 22.898792
LeftArm 28.004688 45.241945 -79.894441
LeftForeArm 10.299582 -0.000000 30.584465
LeftHand -15.660665 -0.000000 3.102941
LeftHandThumb1 -26.253704 0.000000 33.147579
Head 11.314124 9.935022 5.065234
800
root 7.643761 31.166636 12.812614 85.167863 60.431293 17.266770
RightUpLeg -98.586530 -9.376837 6.678350
RightLeg 28.726962 -0.000000 -0.000000
RightFoot -5.846294 1.462693 22.765744
RightToeBase 20.225281 -0.000000 -0.000000
LeftUpLeg -48.664276 6.316992 -1.937952
LeftLeg 15.871626 -0.000000 -0.000000
LeftFoot -4.161006 -8.961053 -11.312705
LeftToeBase -6.847838 -0.000000 0.000000
Spine -31.240236 -4.312778 10.583410
RightShoulder -13.720804 6.634912 -26.746357
RightArm -4.016455 -34.054241 87.598886
RightForeArm 16.603370 -0.000000 23.784476
RightHand 16.223820 -0.000000 -1.420718
RightHandThumb1 -24.326973 -0.000000 -32.862282
LeftShoulder -3.001238 9.127167 23.051378
LeftArm 27.824968 45.534500 -79.911641
LeftForeArm 9.965818 -0.000000 29.856416
LeftHand -15.563863 0.000000 2.481989
LeftHandThumb1 -26.253704 0.000000 33.147579
Head 11.124751 9.601186 5.388160
801
root 7.645343 31.177140 12.751326 84.793804 60.414081 17.303652
RightUpLeg -98.138303 -9.535851 6.606379
RightLeg 28.505306 -0.000000 -0.000000
RightFoot -5.610857 1.433937 22.662524
RightToeBase 19.973753 -0.000000 -0.000000
LeftUpLeg -48.551692 6.190056 -2.169862
LeftLeg 16.042015 -0.000000 -0.000000
LeftFoot -4.981659 -8.339671 -11.365821
LeftToeBase -6.507131 -0.000000 0.000000
Spine -31.359056 -4.106241 10.506429
RightShoulder -13.845578 6.708876 -26.784554
RightArm -3.960511 -34.195052 87.889713
RightForeArm 17.070709 -0.000000 23.554275
RightHand 16.097395 -0.000000 -1.282717
RightHandThumb1 -24.326973 -0.000000 -32.862282
LeftShoulder -2.997939 9.017942 23.133326
LeftArm 27.667385 45.802835 -79.902148
LeftForeArm 9.580214 -0.000000 29.152913
LeftHand -15.394212 -0.000000 1.912017
LeftHandThumb1 -26.253704 0.000000 33.147579
Head 10.802982 9.432360 5.591983
802
root 7.643911 31.186411 12.688975 84.443709 60.504463 17.346997
RightUpLeg -97.692471 -9.692774 6.635819
RightLeg 28.255824 -0.000000 -0.000000
RightFoot -5.386746 1.341385 22.406512
RightToeBase 19.687696 -0.000000 -0.000000
LeftUpLeg -48.482349 6.010901 -2.253210
LeftLeg 16.280109 -0.000000 -0.000000
LeftFoot -5.688007 -7.590837 -11.119557
LeftToeBase -6.580676 -0.000000 0.000000
Spine -31.517176 -3.957400 10.568609
RightShoulder -13.891571 6.823029 -26.832487
RightArm -4.019206 -34.107966 88.244448
RightForeArm 17.392172 -0.000000 23.291681
RightHand 16.095591 -0.000000 -0.905616
RightHandThumb1 -24.326973 -0.000000 -32.862282
LeftShoulder -3.032780 8.920738 23.186040
LeftArm 27.516077 46.064152 -79.860767
LeftForeArm 9.213815 -0.000000 28.453411
LeftHand -15.129563 -0.000000 1.185576
LeftHandThumb1 -26.253704 0.000000 33.147579
Head 10.448350 9.298899 5.742328
803
root 7.642002 31.192943 12.623274 84.055527 60.571195 17.377471
RightUpLeg -97.217150 -9.832449 6.631075
RightLeg 27.990681 -0.000000 -0.000000
RightFoot -5.167866 1.195165 22.018897
RightToeBase 19.328188 -0.000000 -0.000000
LeftUpLeg -48.350194 5.804027 -2.330106
LeftLeg 16.473812 -0.000000 -0.000000
LeftFoot -6.391682 -6.705844 -10.698200
LeftToeBase -5.909815 -0.000000 0.000000
Spine -31.676216 -3.889538 10.651055
RightShoulder -13.876232 6.977836 -26.865358
RightArm -4.131720 -34.288517 88.580314
RightForeArm 17.731676 -0.000000 23.069555
RightHand 16.130661 0.000000 -0.728055
RightHandThumb1 -24.326973 -0.000000 -32.862282
LeftShoulder -3.090590 8.941381 23.223790
LeftArm 27.363480 46.212002 -79.846276
LeftForeArm 8.998240 -0.000000 27.801216
LeftHand -14.817161 -0.000000 0.563819
LeftHandThumb1 -26.253704 0.000000 33.147579
Head 10.095163 9.257727 5.862192
804
root 7.642911 31.195298 12.555054 83.567109 60.516077 17.372011
RightUpLeg -96.704708 -9.959923 6.455481
RightLeg 27.780629 -0.000000 -0.000000
RightFoot -4.924271 1.092287 21.595696
RightToeBase 18.845353 -0.000000 -0.000000
LeftUpLeg -48.108563 5.631026 -2.500061
LeftLeg 16.623475 -0.000000 -0.000000
LeftFoot -6.876933 -5.750098 -10.428693
LeftToeBase -5.730144 -0.000000 0.000000
Spine -31.788779 -3.845513 10.598674
RightShoulder -13.859608 7.141410 -26.866695
RightArm -4.316760 -34.480791 88.912745
RightForeArm 17.766090 -0.000000 22.894734
RightHand 15.998978 -0.000000 -0.483380
RightHandThumb1 -24.326973 -0.000000 -32.862282
LeftShoulder -3.160228 8.951882 23.249048
LeftArm 27.099138 46.261603 -79.912163
LeftForeArm 8.946106 -0.000000 27.235377
LeftHand -14.722426 -0.000000 -0.042960
LeftHandThumb1 -26.253704 0.000000 33.147579
Head 9.751798 9.231432 6.027863
805
root 7.639893 31.199429 12.483714 83.105329 60.617928 17.385389
RightUpLeg -96.148805 -10.102484 6.352206
RightLeg 27.524544 -0.000000 -0.000000
RightFoot -4.771368 0.886796 21.351847
RightToeBase 18.551512 -0.000000 -0.000000
LeftUpLeg -47.904387 5.386088 -2.446193
LeftLeg 16.826785 -0.000000 -0.000000
LeftFoot -7.310729 -4.888104 -10.116823
LeftToeBase -5.339469 -0.000000 0.000000
Spine -31.916692 -3.803834 10.693595
RightShoulder -13.869082 7.123043 -26.820147
RightArm -4.308986 -34.515534 89.089204
RightForeArm 17.478698 -0.000000 22.710404
RightHand 15.798015 -0.000000 -0.071784
RightHandThumb1 -24.326973 -0.000000 -32.862282
LeftShoulder -3.206530 8.978150 23.254451
LeftArm 26.907587 46.277919 -79.934193
LeftForeArm 8.779567 -0.000000 26.647887
LeftHand -14.547971 -0.000000 -0.671188
LeftHandThumb1 -26.253704 0.000000 33.147579
Head 9.379919 9.194443 6.178659
806
root 7.634127 31.200267 12.409778 82.610742 60.679021 17.333395
RightUpLeg -95.634817 -10.201798 6.286533
RightLeg 27.250866 -0.000000 -0.000000
RightFoot -4.593808 0.709595 21.212344
RightToeBase 18.348892 -0.000000 -0.000000
LeftUpLeg -47.679944 5.138461 -2.397977
LeftLeg 16.961142 -0.000000 -0.000000
LeftFoot -7.714954 -4.004008 -9.820082
LeftToeBase -5.132833 -0.000000 0.000000
Spine -32.087212 -3.753730 10.746895
RightShoulder -13.883405 7.163750 -26.792907
RightArm -4.470764 -34.789174 89.323073
RightForeArm 17.209447 -0.000000 22.631522
RightHand 15.441963 -0.000000 0.184451
RightHandThumb1 -24.326973 -0.000000 -32.862282
LeftShoulder -3.262968 9.031148 23.268669
LeftArm 26.727967 46.262076 -79.973358
LeftForeArm 8.580113 -0.000000 26.072736
LeftHand -14.431822 -0.000000 -1.121531
LeftHandThumb1 -26.253704 0.000000 33.147579
Head 9.032002 9.172116 6.352598
807
root 7.627606 31.197640 12.337705 82.051099 60.700797 17.247235
RightUpLeg -95.081741 -10.282499 6.088301
RightLeg 27.003826 -0.000000 -0.000000
RightFoot -4.455087 0.540892 21.077102
RightToeBase 18.155851 -0.000000 -0.000000
LeftUpLeg -47.403444 4.953601 -2.380743
LeftLeg 17.088782 -0.000000 -0.000000
LeftFoot -8.112319 -3.373065 -9.438412
LeftToeBase -5.123128 -0.000000 0.000000
Spine -32.236072 -3.692544 10.728678
RightShoulder -13.938232 7.165130 -26.751517
RightArm -4.636562 -34.943300 89.532031
RightForeArm 16.711955 -0.000000 22.544715
RightHand 15.445159 -0.000000 0.350108
RightHandThumb1 -24.326973 -0.000000 -32.862282
LeftShoulder -3.305020 9.033679 23.284935
LeftArm 26.465618 46.241321 -80.068404
LeftForeArm 8.397075 -0.000000 25.519251
LeftHand -14.389519 -0.000000 -1.440339
LeftHandThumb1 -26.253704 0.000000 33.147579
Head 8.667772 9.118118 6.541749
808
root 7.619402 31.194439 12.263882 81.464587 60.816023 17.133477
RightUpLeg -94.487465 -10.356631 5.982148
RightLeg 26.691478 -0.000000 -0.000000
RightFoot -4.309826 0.329589 20.930568
RightToeBase 17.933986 -0.000000 -0.000000
LeftUpLeg -47.127650 4.690258 -2.198702
LeftLeg 17.249319 -0.000000 -0.000000
LeftFoot -8.687978 -2.695456 -8.946884
LeftToeBase -4.905873 -0.000000 0.000000
Spine -32.399350 -3.626448 10.787954
RightShoulder -14.023030 7.121579 -26.680352
RightArm -4.784467 -35.123704 89.664755
RightForeArm 16.413701 -0.000000 22.394096
RightHand 15.418636 -0.000000 0.625639
RightHandThumb1 -24.326973 -0.000000 -32.862282
LeftShoulder -3.320649 9.072534 23.329524
LeftArm 26.286049 46.213087 -80.147688
LeftForeArm 8.192138 -0.000000 24.953363
LeftHand -14.364216 0.000000 -1.738051
LeftHandThumb1 -26.253704 0.000000 33.147579
Head 8.302655 9.026761 6.762843
809
root 7.608379 31.189985 12.191990 80.853509 60.972514 16.995852
RightUpLeg -93.856726 -10.406987 5.738935
RightLeg 26.395731 -0.000000 -0.000000
RightFoot -4.214504 0.058680 20.787237
RightToeBase 17.659829 -0.000000 -0.000000
LeftUpLeg -46.889538 4.534520 -2.032394
LeftLeg 17.485978 -0.000000 -0.000000
LeftFoot -9.250274 -2.200066 -8.388931
LeftToeBase -4.907245 -0.000000 0.000000
Spine -32.572539 -3.614765 10.917797
RightShoulder -14.100922 7.019789 -26.627988
RightArm -4.805103 -35.378737 89.763501
RightForeArm 16.324908 -0.000000 22.049144
RightHand 15.343015 -0.000000 0.974744
RightHandThumb1 -24.326973 -0.000000 -32.862282
LeftShoulder -3.398257 9.095466 23.345693
LeftArm 26.009389 46.147662 -80.291258
LeftForeArm 7.903185 0.000000 24.421340
LeftHand -14.336074 -0.000000 -1.893865
LeftHandThumb1 -26.253704 0.000000 33.147579
Head 7.912158 8.935814 6.922920
